<svg width="261" height="142" viewBox="0 0 261 142" fill="none" xmlns="http://www.w3.org/2000/svg">
<path d="M73 28V36" stroke="#2298D4" stroke-width="2" stroke-linecap="round"/>
<path d="M77 32L69 32" stroke="#2298D4" stroke-width="2" stroke-linecap="round"/>
<circle cx="88" cy="19" r="2" stroke="#2298D4" stroke-width="2"/>
<circle cx="98" cy="4" r="3" stroke="#2298D4" stroke-width="2"/>
<circle cx="188" cy="47" r="3" stroke="#2298D4" stroke-width="2"/>
<ellipse cx="130.5" cy="86" rx="98.5" ry="30" fill="white"/>
<ellipse opacity="0.5" cx="130.5" cy="89" rx="113.5" ry="39" fill="white"/>
<ellipse opacity="0.2" cx="130.5" cy="93" rx="130.5" ry="49" fill="white"/>
<path d="M93.3291 45.6929C91.7233 45.9082 90.2675 46.7491 89.2787 48.0326C88.2898 49.316 87.848 50.938 88.0492 52.5457L92.6573 89.4105C92.843 90.8962 93.5648 92.263 94.6871 93.2541C95.8094 94.2452 97.255 94.7924 98.7523 94.7928H161.636C163.133 94.7929 164.579 94.2459 165.702 93.2548C166.825 92.2637 167.547 90.8966 167.733 89.4105L172.341 52.5457C172.542 50.9377 172.1 49.3154 171.11 48.0319C170.121 46.7484 168.665 45.9078 167.059 45.6929V51.7838H93.3291V45.6929Z" fill="#2298D4" fill-opacity="0.2"/>
<path d="M93.329 45.6396C93.329 45.1017 93.4349 44.5691 93.6408 44.0721C93.8466 43.5752 94.1483 43.1236 94.5287 42.7433C94.9091 42.3629 95.3606 42.0612 95.8576 41.8553C96.3545 41.6495 96.8872 41.5435 97.4251 41.5435H162.963C164.049 41.5435 165.091 41.9751 165.859 42.7433C166.627 43.5114 167.059 44.5533 167.059 45.6396V67.1441H93.329V45.6396ZM103.569 37.4475C103.569 36.3611 104.001 35.3192 104.769 34.5511C105.537 33.7829 106.579 33.3514 107.665 33.3514H152.722C153.809 33.3514 154.851 33.7829 155.619 34.5511C156.387 35.3192 156.818 36.3611 156.818 37.4475V39.4955H103.569V37.4475ZM113.809 31.3033C113.809 30.217 114.241 29.1751 115.009 28.4069C115.777 27.6388 116.819 27.2072 117.906 27.2072H140.434C141.52 27.2072 142.562 27.6388 143.33 28.4069C144.099 29.1751 144.53 30.217 144.53 31.3033H113.809Z" fill="#2298D4"/>
<path d="M93.3291 45.6396C91.7233 45.855 90.2675 46.6959 89.2787 47.9793C88.2898 49.2627 87.848 50.8848 88.0492 52.4924L92.6573 89.3573C92.843 90.843 93.5648 92.2098 94.6871 93.2009C95.8094 94.192 97.255 94.7391 98.7523 94.7395H161.636C163.133 94.7396 164.579 94.1927 165.702 93.2016C166.825 92.2104 167.547 90.8433 167.733 89.3573L172.341 52.4924C172.542 50.8845 172.1 49.2622 171.11 47.9787C170.121 46.6952 168.665 45.8545 167.059 45.6396V51.7305H93.3291V45.6396Z" fill="#FFA654" fill-opacity="0.6"/>
<path d="M169.107 53.7786V48.8018C169.985 49.662 170.475 50.9072 170.307 52.2385L165.699 89.1033C165.575 90.0938 165.094 91.005 164.346 91.6657C163.597 92.3264 162.634 92.6912 161.636 92.6915H98.7523C97.7541 92.6912 96.7904 92.3264 96.0421 91.6657C95.2939 91.005 94.8127 90.0938 94.689 89.1033L90.0809 52.2385C90.0017 51.6118 90.0688 50.9754 90.2771 50.3791C90.4853 49.7828 90.8289 49.2429 91.281 48.8018V53.7786H169.107ZM169.107 46.293C168.468 45.9554 167.775 45.7342 167.059 45.6396V51.7305H93.3291V45.6396C91.7233 45.855 90.2675 46.6959 89.2787 47.9793C88.2898 49.2627 87.848 50.8848 88.0492 52.4924L92.6573 89.3573C92.843 90.843 93.5648 92.2098 94.6871 93.2009C95.8094 94.192 97.255 94.7391 98.7523 94.7395H161.636C163.133 94.7396 164.579 94.1927 165.702 93.2016C166.825 92.2104 167.547 90.8433 167.733 89.3573L172.341 52.4924C172.496 51.2528 172.269 49.9954 171.692 48.8878C171.114 47.7802 170.212 46.875 169.107 46.293Z" fill="white" fill-opacity="0.6"/>
<path d="M113.809 66.1201C113.809 65.577 114.025 65.056 114.409 64.6719C114.793 64.2879 115.314 64.0721 115.857 64.0721C116.401 64.0721 116.922 64.2879 117.306 64.6719C117.69 65.056 117.906 65.577 117.906 66.1201V74.3123H142.482V66.1201C142.482 65.577 142.698 65.056 143.082 64.6719C143.466 64.2879 143.987 64.0721 144.53 64.0721C145.073 64.0721 145.594 64.2879 145.978 64.6719C146.362 65.056 146.578 65.577 146.578 66.1201V76.3604C146.578 76.9035 146.362 77.4245 145.978 77.8086C145.594 78.1926 145.073 78.4084 144.53 78.4084H115.857C115.314 78.4084 114.793 78.1926 114.409 77.8086C114.025 77.4245 113.809 76.9035 113.809 76.3604V66.1201Z" fill="white"/>
<g clip-path="url(#clip0_143_93)">
<rect x="157" y="39" width="16" height="16" fill="white"/>
<path d="M164.5 59C157.597 59 152 53.4031 152 46.5C152 39.5969 157.597 34 164.5 34C171.403 34 177 39.5969 177 46.5C177 53.4031 171.403 59 164.5 59ZM161.713 51.4083C161.833 51.5293 161.977 51.6252 162.135 51.6907C162.293 51.7561 162.462 51.7898 162.633 51.7898C162.804 51.7898 162.974 51.7561 163.132 51.6907C163.29 51.6252 163.433 51.5293 163.554 51.4083L171.448 43.5146C171.569 43.3937 171.665 43.2501 171.73 43.0921C171.796 42.9341 171.829 42.7648 171.829 42.5938C171.829 42.4227 171.796 42.2534 171.73 42.0954C171.665 41.9374 171.569 41.7938 171.448 41.6729C171.327 41.552 171.183 41.4561 171.025 41.3906C170.867 41.3252 170.698 41.2915 170.527 41.2915C170.356 41.2915 170.187 41.3252 170.029 41.3906C169.871 41.4561 169.727 41.552 169.606 41.6729L162.577 48.5896L159.431 45.4437C159.187 45.1995 158.856 45.0623 158.51 45.0623C158.165 45.0623 157.834 45.1995 157.59 45.4437C157.345 45.688 157.208 46.0192 157.208 46.3646C157.208 46.5356 157.242 46.7049 157.307 46.8629C157.373 47.0209 157.469 47.1645 157.59 47.2854L161.713 51.4083Z" fill="#32DD6C"/>
</g>
<defs>
<clipPath id="clip0_143_93">
<rect width="25" height="25" fill="white" transform="translate(152 34)"/>
</clipPath>
</defs>
</svg>
