<svg width="95" height="47" viewBox="0 0 95 47" fill="none" xmlns="http://www.w3.org/2000/svg">
<path d="M18.888 4.60799V3.40798H12.432V4.60799H18.888ZM18.888 7.67999V6.45599H12.432V7.67999H18.888ZM21.624 1.41598V9.69598H9.81598V1.41598H21.624ZM8.59198 13.392L6.04798 14.16V19.752C6.04798 21.072 5.83198 21.768 5.11198 22.2C4.39198 22.68 3.33598 22.776 1.79998 22.752C1.72798 22.056 1.41598 20.88 1.05598 20.136C1.94398 20.16 2.75998 20.16 3.04798 20.136C3.33598 20.136 3.45598 20.04 3.45598 19.728V14.928C2.66398 15.144 1.94398 15.36 1.24798 15.552L0.599976 12.792C1.41598 12.624 2.37598 12.36 3.45598 12.096V7.84799H0.863976V5.20798H3.45598V0.671984H6.04798V5.20798H8.44798V7.84799H6.04798V11.4L8.20798 10.824L8.59198 13.392ZM16.968 17.448V20.208C17.52 20.256 18.048 20.28 18.648 20.28C19.464 20.28 22.44 20.28 23.472 20.256C23.136 20.832 22.8 22.032 22.704 22.752H18.528C15.384 22.752 12.96 22.176 11.328 19.272C10.704 20.784 9.86398 22.056 8.80798 23.04C8.37598 22.584 7.29598 21.696 6.71998 21.336C8.71198 19.752 9.69598 17.088 10.056 13.824L12.648 14.136C12.528 15 12.384 15.816 12.192 16.56C12.72 17.952 13.416 18.816 14.28 19.368V13.104H8.63998V10.8H22.824V13.104H16.968V15.216H21.552V17.448H16.968Z" fill="#425066"/>
<path d="M46.512 3.69598V6.47999H25.464V3.69598H34.824C34.488 2.90399 34.032 2.03999 33.6 1.31998L36.336 0.359985C36.984 1.39198 37.776 2.75998 38.088 3.67198L38.016 3.69598H46.512ZM38.28 8.15999L40.536 6.55198C42.6 7.96798 45.384 10.08 46.704 11.616L44.256 13.464C43.08 11.976 40.416 9.71999 38.28 8.15999ZM31.152 6.69598L33.912 7.75198C32.28 9.86399 29.688 12.048 27.552 13.344C27.024 12.768 25.944 11.736 25.296 11.256C27.432 10.176 29.76 8.42398 31.152 6.69598ZM39.144 10.824L42.024 11.664C41.064 13.896 39.792 15.768 38.232 17.304C40.536 18.816 43.416 19.848 46.944 20.376C46.32 21 45.576 22.176 45.216 22.944C41.424 22.224 38.424 21 36 19.176C33.456 20.976 30.36 22.2 26.832 23.064C26.496 22.416 25.656 21.144 25.104 20.52C28.584 19.848 31.536 18.816 33.888 17.256C32.472 15.72 31.296 13.872 30.384 11.736L32.952 10.944C33.672 12.696 34.704 14.256 36.024 15.552C37.392 14.256 38.448 12.696 39.144 10.824Z" fill="#425066"/>
<path d="M66.84 8.32799L69.696 9.02399C68.712 12.144 67.296 14.928 65.568 17.256C66.264 18.984 67.032 19.992 67.8 19.992C68.376 19.992 68.664 18.792 68.784 15.792C69.432 16.464 70.44 17.088 71.208 17.4C70.752 21.84 69.792 22.896 67.56 22.896C65.88 22.896 64.56 21.696 63.504 19.728C62.28 21 60.936 22.08 59.448 22.992C59.016 22.368 57.984 21.192 57.384 20.64C59.232 19.632 60.888 18.312 62.28 16.752C61.464 14.04 60.936 10.68 60.624 7.07998H53.664V9.64799H59.592C59.592 9.64799 59.568 10.392 59.568 10.728C59.496 15.768 59.352 17.904 58.8 18.6C58.344 19.224 57.864 19.44 57.144 19.56C56.52 19.656 55.488 19.656 54.384 19.632C54.336 18.792 54.024 17.688 53.592 16.968C54.456 17.04 55.272 17.064 55.656 17.064C55.992 17.064 56.184 17.016 56.376 16.776C56.616 16.44 56.712 15.288 56.784 12.264H53.664C53.568 15.768 53.064 20.448 51.096 23.376C50.592 22.824 49.32 21.768 48.672 21.432C50.496 18.552 50.664 14.376 50.664 11.256V4.24798H60.456C60.408 3.07198 60.36 1.89598 60.36 0.695985H63.36C63.336 1.89598 63.36 3.07198 63.408 4.24798H67.08C66.192 3.52798 64.992 2.75998 64.008 2.15999L65.736 0.455984C67.056 1.12798 68.808 2.23198 69.648 3.02399L68.496 4.24798H70.992V7.07998H63.576C63.792 9.47999 64.128 11.736 64.536 13.656C65.472 12.048 66.264 10.272 66.84 8.32799Z" fill="#425066"/>
<path d="M82.272 13.704L82.632 16.416C79.464 17.352 76.008 18.312 73.368 19.032L72.672 16.08C73.656 15.864 74.856 15.6 76.128 15.264V5.95199H73.008V3.26399H82.032V5.95199H78.96V14.568C80.064 14.28 81.168 13.992 82.272 13.704ZM88.608 5.75998H94.584C94.584 5.75998 94.584 6.71999 94.56 7.05599C94.272 16.776 94.008 20.28 93.144 21.432C92.544 22.296 91.944 22.56 91.032 22.704C90.216 22.824 88.92 22.824 87.576 22.776C87.528 21.96 87.192 20.76 86.712 19.968C87.96 20.064 89.136 20.064 89.688 20.064C90.12 20.064 90.36 19.992 90.624 19.656C91.224 19.008 91.488 15.984 91.704 8.49599H88.488C88.08 14.904 86.688 19.968 81.432 23.112C81 22.368 80.112 21.336 79.416 20.808C84.072 18.168 85.296 13.992 85.608 8.49599H82.368V5.75998H85.728C85.752 4.29598 85.752 2.71199 85.752 1.07998H88.656C88.656 2.68799 88.632 4.27198 88.608 5.75998Z" fill="#425066"/>
<path d="M4.30392 34.536L3.55192 35.192C3.13592 34.504 2.27192 33.4 1.51992 32.632L2.25592 32.072C2.99192 32.824 3.88792 33.848 4.30392 34.536ZM3.66392 43.48L5.15192 42.248C5.21592 42.504 5.34392 42.904 5.43992 43.112C3.10392 45.112 2.75192 45.448 2.54392 45.752C2.43192 45.528 2.12792 45.144 1.91992 44.968C2.19192 44.744 2.70392 44.152 2.70392 43.4V37.672H0.815918V36.648H3.66392V43.48ZM6.44792 38.52V40.008H8.84792V38.52H6.44792ZM8.84792 36.36H6.44792V37.704H8.84792V36.36ZM8.84792 34.296H6.44792V35.544H8.84792V34.296ZM9.77592 33.416V44.904C9.77592 45.464 9.64792 45.752 9.26392 45.928C8.89592 46.072 8.23992 46.104 7.26392 46.104C7.21592 45.848 7.07192 45.448 6.92792 45.176C7.67992 45.208 8.36792 45.192 8.57592 45.176C8.78392 45.176 8.84792 45.112 8.84792 44.888V41.288C7.85592 42.984 6.38392 44.504 4.92792 45.528C4.81592 45.352 4.49592 44.936 4.30392 44.776C5.72792 43.864 7.11992 42.472 8.03192 40.92H4.60792V40.008H5.55192V33.416H6.97592C7.16792 32.84 7.35992 32.136 7.45592 31.624L8.47992 31.832C8.30392 32.344 8.07992 32.936 7.88792 33.416H9.77592ZM15.2959 35.192V36.184H14.2719V44.84C14.2719 45.48 14.1279 45.768 13.7279 45.944C13.3119 46.12 12.6079 46.136 11.5839 46.136C11.5199 45.864 11.3599 45.432 11.2159 45.144C12.0319 45.176 12.7679 45.176 12.9919 45.16C13.2319 45.144 13.2959 45.08 13.2959 44.84V36.184H10.3359V35.192H13.2959V31.752H14.2719V35.192H15.2959ZM12.5279 41.176L11.6319 41.464C11.4719 40.52 10.9759 38.952 10.4479 37.752L11.2799 37.528C11.8239 38.696 12.3519 40.248 12.5279 41.176Z" fill="#425066"/>
<path d="M20.3039 34.536L19.5519 35.192C19.1359 34.504 18.2719 33.4 17.5199 32.632L18.2559 32.072C18.9919 32.824 19.8879 33.848 20.3039 34.536ZM19.6639 43.48L21.1519 42.248C21.2159 42.504 21.3439 42.904 21.4399 43.112C19.1039 45.112 18.7519 45.448 18.5439 45.752C18.4319 45.528 18.1279 45.144 17.9199 44.968C18.1919 44.744 18.7039 44.152 18.7039 43.4V37.672H16.8159V36.648H19.6639V43.48ZM22.4479 38.52V40.008H24.8479V38.52H22.4479ZM24.8479 36.36H22.4479V37.704H24.8479V36.36ZM24.8479 34.296H22.4479V35.544H24.8479V34.296ZM25.7759 33.416V44.904C25.7759 45.464 25.6479 45.752 25.2639 45.928C24.8959 46.072 24.2399 46.104 23.2639 46.104C23.2159 45.848 23.0719 45.448 22.9279 45.176C23.6799 45.208 24.3679 45.192 24.5759 45.176C24.7839 45.176 24.8479 45.112 24.8479 44.888V41.288C23.8559 42.984 22.3839 44.504 20.9279 45.528C20.8159 45.352 20.4959 44.936 20.3039 44.776C21.7279 43.864 23.1199 42.472 24.0319 40.92H20.6079V40.008H21.5519V33.416H22.9759C23.1679 32.84 23.3599 32.136 23.4559 31.624L24.4799 31.832C24.3039 32.344 24.0799 32.936 23.8879 33.416H25.7759ZM31.2959 35.192V36.184H30.2719V44.84C30.2719 45.48 30.1279 45.768 29.7279 45.944C29.3119 46.12 28.6079 46.136 27.5839 46.136C27.5199 45.864 27.3599 45.432 27.2159 45.144C28.0319 45.176 28.7679 45.176 28.9919 45.16C29.2319 45.144 29.2959 45.08 29.2959 44.84V36.184H26.3359V35.192H29.2959V31.752H30.2719V35.192H31.2959ZM28.5279 41.176L27.6319 41.464C27.4719 40.52 26.9759 38.952 26.4479 37.752L27.2799 37.528C27.8239 38.696 28.3519 40.248 28.5279 41.176Z" fill="#425066"/>
<path d="M45.6319 34.104H39.4399C38.9439 34.952 38.3519 35.72 37.7439 36.296C37.5679 36.12 37.1679 35.784 36.9439 35.64C38.0319 34.664 38.9919 33.192 39.5359 31.656L40.5119 31.896C40.3519 32.328 40.1599 32.76 39.9679 33.176H46.1279L46.3039 33.128L47.0399 33.336C46.6079 34.232 46.1279 35.304 45.7119 35.944L44.8159 35.752C45.0719 35.304 45.3759 34.696 45.6319 34.104ZM43.9039 36.376L44.7519 35.976C45.5839 36.952 46.4319 38.296 46.7839 39.176L45.8719 39.656C45.5359 38.76 44.6879 37.384 43.9039 36.376ZM41.8079 43.128L40.9279 43.656C40.5119 42.872 39.5199 41.672 38.6239 40.824L39.4559 40.344C40.3359 41.176 41.3599 42.344 41.8079 43.128ZM39.5199 36.024L40.4959 36.28C39.9999 37.56 39.1519 38.824 38.3199 39.64C38.1439 39.48 37.7439 39.192 37.5039 39.048C38.3519 38.28 39.0879 37.144 39.5199 36.024ZM42.9279 34.696V39.464C42.9279 40.024 42.8159 40.28 42.4159 40.456C41.9999 40.616 41.3599 40.632 40.3519 40.632C40.3039 40.328 40.1439 39.96 40.0159 39.688C40.7999 39.704 41.4559 39.704 41.6479 39.688C41.8559 39.672 41.9039 39.624 41.9039 39.464V34.696H42.9279ZM33.8399 45.56L32.8479 45.096C33.5039 44.152 34.1279 42.696 34.4959 41.672L35.4399 42.056C35.0239 43.096 34.4479 44.584 33.8399 45.56ZM36.4639 31.592L37.4239 31.912C37.0239 32.712 36.5279 33.496 35.9839 34.232V40.696H34.9599V35.512C34.4319 36.104 33.8879 36.664 33.3439 37.112C33.1999 36.92 32.8479 36.504 32.6399 36.312C34.1119 35.176 35.5519 33.4 36.4639 31.592ZM38.5919 44.92H42.4479C43.3279 44.92 43.4719 44.68 43.5519 43.032C43.8079 43.224 44.2399 43.384 44.5439 43.448C44.3839 45.432 44.0319 45.896 42.5119 45.896H38.5599C36.7359 45.896 36.2559 45.608 36.2559 44.392V41.56H37.3119V44.376C37.3119 44.824 37.5039 44.92 38.5919 44.92ZM44.3199 41.752L45.2479 41.4C45.9999 42.52 46.7679 43.992 47.0399 44.968L46.0159 45.384C45.7759 44.408 45.0559 42.904 44.3199 41.752Z" fill="#425066"/>
<path d="M53.9519 38.632V35.144H50.4479V38.632H53.9519ZM50.4479 43.56H53.9519V39.592H50.4479V43.56ZM51.9359 31.592L53.0719 31.816C52.8159 32.6 52.5119 33.496 52.2239 34.184H54.9279V44.52H50.4479V45.8H49.4719V34.184H51.2479C51.5199 33.432 51.8079 32.344 51.9359 31.592ZM62.7679 34.152V34.712C62.5119 42.056 62.2879 44.504 61.6479 45.272C61.3279 45.704 60.9599 45.832 60.4319 45.88C59.8879 45.928 58.9759 45.896 58.0799 45.848C58.0479 45.528 57.9199 45.096 57.7279 44.808C58.7679 44.904 59.7279 44.904 60.0799 44.904C60.3999 44.904 60.5919 44.872 60.7519 44.664C61.2799 44.104 61.5359 41.64 61.7439 35.144H57.5519C57.1039 36.232 56.5919 37.224 56.0479 37.992C55.8559 37.832 55.3919 37.544 55.1519 37.4C56.2399 35.976 57.1039 33.768 57.5999 31.56L58.6239 31.784C58.4159 32.584 58.1919 33.384 57.9199 34.152H62.7679ZM60.2559 41.352L59.3599 41.912C58.8639 40.936 57.7759 39.352 56.8799 38.2L57.6959 37.72C58.6239 38.856 59.7439 40.392 60.2559 41.352Z" fill="#425066"/>
<path d="M76.2239 42.168L77.1839 42.648C75.1999 44.616 71.5039 45.736 67.4239 46.248C67.3279 45.96 67.1199 45.576 66.9119 45.32C70.8319 44.904 74.4479 43.912 76.2239 42.168ZM74.2079 40.44L75.1039 40.888C73.5199 42.136 70.8799 43.096 68.4799 43.624C68.3359 43.384 68.1119 43.032 67.8719 42.824C70.1599 42.376 72.7999 41.496 74.2079 40.44ZM72.8159 38.584L73.6799 39.032C72.4159 39.976 70.4319 40.808 68.7999 41.272C68.6239 41.064 68.3679 40.744 68.1279 40.536C69.7119 40.12 71.7119 39.384 72.8159 38.584ZM79.1199 37.736H74.8799C75.9999 39.048 77.7439 40.248 79.3599 40.84C79.1199 41.048 78.8159 41.432 78.6399 41.704C76.8159 40.904 74.8639 39.384 73.6639 37.736H70.4159C69.1359 39.528 67.4399 40.872 65.5199 41.816C65.3599 41.608 64.9599 41.192 64.7199 40.984C66.4639 40.232 67.9519 39.144 69.0879 37.736H64.9119V36.776H69.7759C70.1119 36.28 70.3839 35.752 70.6079 35.192C67.7439 35.336 67.2799 35.4 66.9119 35.512C66.8639 35.304 66.7039 34.776 66.6079 34.504C66.9119 34.472 67.2959 34.28 67.7279 34.008C68.2079 33.752 69.7919 32.712 70.9439 31.576L71.9039 32.12C70.9279 32.968 69.8719 33.736 68.8479 34.344L75.2799 34.088C74.6399 33.592 73.9519 33.096 73.3119 32.696L74.1279 32.136C75.5839 33.016 77.3599 34.36 78.2079 35.32L77.3599 35.96C77.0879 35.64 76.7199 35.304 76.3039 34.92L71.6479 35.144L71.7919 35.176C71.5679 35.736 71.2959 36.28 71.0239 36.776H79.1199V37.736Z" fill="#425066"/>
<path d="M90.8959 41.256V42.28H80.9919V41.256H90.8959ZM94.1439 37.896L94.0959 38.424C93.6319 43 93.1839 44.808 92.4639 45.496C92.0799 45.88 91.6959 45.976 91.0399 46.024C90.4799 46.04 89.3439 46.008 88.2239 45.944C88.1919 45.624 88.0479 45.192 87.8239 44.888C89.0719 45 90.2879 45.016 90.7359 45.016C91.1359 45.016 91.3759 45 91.5679 44.824C92.1599 44.344 92.5759 42.664 92.9759 38.904H83.5679L82.6879 38.888C83.1839 37.144 83.8399 34.152 84.2239 31.992L85.2799 32.104C85.1839 32.664 85.0719 33.272 84.9439 33.88H93.9359V34.904H84.7199C84.4959 35.96 84.2719 37 84.0479 37.896H94.1439Z" fill="#425066"/>
</svg>
