<svg width="10" height="10" viewBox="0 0 10 10" fill="none" xmlns="http://www.w3.org/2000/svg">
<path fill-rule="evenodd" clip-rule="evenodd" d="M1.46447 1.46446C2.36884 0.560102 3.61941 0 5 0C6.38059 0 7.63116 0.560102 8.53552 1.46446L8.2409 1.75909L8.53553 1.46447C9.43989 2.36884 10 3.61941 10 5C10 6.38059 9.43989 7.63116 8.53553 8.53553C7.63116 9.43989 6.38059 10 5 10C3.61941 10 2.36884 9.43989 1.46447 8.53553L1.75909 8.2409L1.46446 8.53552C0.560102 7.63116 0 6.38059 0 5C0 3.61941 0.560102 2.36884 1.46446 1.46447L1.46447 1.46446ZM5 0.833333C3.8493 0.833333 2.80821 1.29925 2.05372 2.05372C1.29924 2.80821 0.833333 3.8493 0.833333 5C0.833333 6.1507 1.29925 7.19179 2.05372 7.94627C2.80821 8.70075 3.8493 9.16667 5 9.16667C6.1507 9.16667 7.19179 8.70075 7.94627 7.94627C8.70075 7.19179 9.16667 6.1507 9.16667 5C9.16667 3.8493 8.70075 2.80821 7.94627 2.05372C7.19179 1.29925 6.1507 0.833333 5 0.833333Z" fill="#E93131"/>
<path fill-rule="evenodd" clip-rule="evenodd" d="M5.00001 2.08334C5.23013 2.08334 5.41668 2.26989 5.41668 2.50001C5.41668 2.73013 5.23013 2.91668 5.00001 2.91668C4.76989 2.91668 4.58334 2.73013 4.58334 2.50001C4.58334 2.26989 4.76989 2.08334 5.00001 2.08334Z" fill="#E93131"/>
<path fill-rule="evenodd" clip-rule="evenodd" d="M4.16666 3.75001C4.16666 3.51989 4.3532 3.33334 4.58332 3.33334H5.41666C5.64678 3.33334 5.83332 3.51989 5.83332 3.75001V7.08334C5.83332 7.31346 5.64678 7.50001 5.41666 7.50001C5.18654 7.50001 4.99999 7.31346 4.99999 7.08334V4.16668H4.58332C4.3532 4.16668 4.16666 3.98013 4.16666 3.75001Z" fill="#E93131"/>
<path fill-rule="evenodd" clip-rule="evenodd" d="M4.16666 7.08332C4.16666 6.8532 4.3532 6.66666 4.58332 6.66666H6.24999C6.48011 6.66666 6.66666 6.8532 6.66666 7.08332C6.66666 7.31344 6.48011 7.49999 6.24999 7.49999H4.58332C4.3532 7.49999 4.16666 7.31344 4.16666 7.08332Z" fill="#E93131"/>
</svg>
