<svg width="20" height="20" viewBox="0 0 20 20" fill="none" xmlns="http://www.w3.org/2000/svg">
<path d="M13.5355 10.2022C14.4404 9.29737 15 8.04737 15 6.66666C15 3.90523 12.7614 1.66666 10 1.66666C7.23858 1.66666 5 3.90523 5 6.66666C5 8.04737 5.55962 9.29737 6.46446 10.2022" stroke="#425066" stroke-width="2" stroke-linecap="round"/>
<path d="M2.5 18.3333L2.91667 16.25L7.5 12.9167L10 15.4167L12.5 12.9167L17.0833 16.25L17.5 18.3333" stroke="#425066" stroke-width="2" stroke-linecap="round" stroke-linejoin="round"/>
<path d="M5.41394 8.75296C5.41923 7.04021 5.6979 5.78921 6.25002 4.99996C7.07823 3.81613 7.66127 3.90315 8.08561 4.08754C8.50994 4.27192 8.75944 5.47675 9.46819 5.82404C10.1769 6.17133 11.9907 6.21421 12.612 6.63196C13.2332 7.04975 14.654 7.82683 14.2998 9.1535" stroke="#425066" stroke-width="2"/>
</svg>
