<svg width="20" height="20" viewBox="0 0 20 20" fill="none" xmlns="http://www.w3.org/2000/svg">
<path d="M6.66683 18.3333C6.05763 16.5213 5.86104 14.9935 6.07704 13.75C6.29304 12.5064 6.96475 11.6936 8.09213 11.3115C7.25325 13.856 7.597 15.7151 9.12342 16.8887C11.413 18.649 16.9307 17.8395 17.2296 11.8846C17.5286 5.92975 14.6645 1.63025 10.4293 1.63025C6.194 1.63025 5.56092 6.21408 8.54375 7.76962C5.90463 8.34483 4.22992 9.52546 3.51961 11.3115C2.80929 13.0976 2.75399 15.4382 3.35371 18.3333" stroke="#425066" stroke-width="2" stroke-linecap="round" stroke-linejoin="round"/>
<path d="M12.7498 6.25C11.5426 6.96971 11.1051 7.62888 11.4372 8.2275C11.7694 8.82617 12.5228 8.82617 13.6973 8.2275" stroke="#425066" stroke-width="2" stroke-linecap="round" stroke-linejoin="round"/>
<path d="M13.8528 10.9335C12.2943 10.616 11.3571 10.731 11.0413 11.2784C10.5676 12.0995 12.654 13.2892 13.4103 13.4379" stroke="#425066" stroke-width="2" stroke-linecap="round" stroke-linejoin="round"/>
</svg>
