<svg width="20" height="20" viewBox="0 0 20 20" fill="none" xmlns="http://www.w3.org/2000/svg">
<path d="M4.16669 7.91669C4.16669 7.91669 2.02383 8.75002 1.66669 11.6667" stroke="#425066" stroke-width="2" stroke-linecap="round"/>
<path d="M15.8333 7.91669C15.8333 7.91669 17.9762 8.75002 18.3333 11.6667" stroke="#425066" stroke-width="2" stroke-linecap="round"/>
<path d="M7.5 7.91669C7.5 7.91669 9.5 8.40281 10 10.8334" stroke="#425066" stroke-width="2" stroke-linecap="round"/>
<path d="M12.5 7.91669C12.5 7.91669 10.5 8.40281 10 10.8334" stroke="#425066" stroke-width="2" stroke-linecap="round"/>
<path d="M8.33331 14.1667C8.33331 14.1667 6.58331 14.4792 5.83331 16.6667" stroke="#425066" stroke-width="2" stroke-linecap="round"/>
<path d="M11.6667 14.1667C11.6667 14.1667 13.4167 14.4792 14.1667 16.6667" stroke="#425066" stroke-width="2" stroke-linecap="round"/>
<path d="M10 15C11.1506 15 12.0834 14.0672 12.0834 12.9166C12.0834 11.7661 11.1506 10.8333 10 10.8333C8.84943 10.8333 7.91669 11.7661 7.91669 12.9166C7.91669 14.0672 8.84943 15 10 15Z" stroke="#425066" stroke-width="2" stroke-linecap="round" stroke-linejoin="round"/>
<path d="M14.1667 8.33331C15.5474 8.33331 16.6667 7.21402 16.6667 5.83331C16.6667 4.4526 15.5474 3.33331 14.1667 3.33331C12.786 3.33331 11.6667 4.4526 11.6667 5.83331C11.6667 7.21402 12.786 8.33331 14.1667 8.33331Z" stroke="#425066" stroke-width="2" stroke-linecap="round" stroke-linejoin="round"/>
<path d="M5.83331 8.33331C7.21402 8.33331 8.33331 7.21402 8.33331 5.83331C8.33331 4.4526 7.21402 3.33331 5.83331 3.33331C4.4526 3.33331 3.33331 4.4526 3.33331 5.83331C3.33331 7.21402 4.4526 8.33331 5.83331 8.33331Z" stroke="#425066" stroke-width="2" stroke-linecap="round" stroke-linejoin="round"/>
</svg>
