<svg width="414" height="414" viewBox="0 0 414 414" fill="none" xmlns="http://www.w3.org/2000/svg">
<circle cx="203.213" cy="161.968" r="84.7871" fill="#2298D5"/>
<circle cx="269.657" cy="102.046" r="18.3434" fill="#2298D5"/>
<circle cx="98.0442" cy="120.39" r="13.0442" fill="#2298D5"/>
<circle cx="264.357" cy="223.113" r="13.0442" fill="#2298D5"/>
<circle cx="276.994" cy="62.0984" r="6.92972" fill="#2298D5"/>
<circle cx="281.07" cy="247.163" r="3.66867" fill="#2298D5"/>
<path d="M206.809 182.159C205.183 182.159 204.26 182.987 203.928 183.505C203.873 183.59 203.844 183.691 203.827 183.791C201.049 200.594 188.924 206.401 181.276 208.356C180.502 208.554 180.248 209.528 180.568 210.26C180.864 210.936 180.923 211.703 180.934 212.944C180.939 213.497 181.385 213.946 181.937 213.941C186.638 213.898 190.574 213.371 199.417 207.292C208.77 200.862 210.226 189.086 209.782 183.818C209.772 183.696 209.74 183.579 209.672 183.477C209.325 182.958 208.407 182.159 206.809 182.159Z" fill="white"/>
<path d="M176.165 126.228C189.825 120.126 200.959 121.552 203.529 125.012C206.099 128.472 207.359 178.859 200.739 179.512C194.118 180.166 190.667 175.307 180.378 168.895C170.088 162.483 159.091 133.856 176.165 126.228Z" fill="white"/>
<path fill-rule="evenodd" clip-rule="evenodd" d="M239.043 125.762C225.877 120.202 215.255 121.643 212.753 125.012C211.546 126.636 210.628 138.599 210.679 150.905C211.842 149.579 215.071 146.879 220.115 145.198C226.512 143.066 236.327 136.149 239.043 125.762ZM210.817 157.892C211.234 169.247 212.621 179.224 215.543 179.512C220.158 179.968 223.233 177.745 228.158 174.184C230.298 172.637 232.787 170.837 235.904 168.895C245.472 162.932 255.651 137.762 243.304 128.128C241.908 131.891 239.695 136.706 237.117 139.284C234.063 142.338 230.659 143.99 226.663 145.929C224.856 146.807 222.927 147.743 220.854 148.894C216.326 151.41 212.824 154.953 210.817 157.892Z" fill="white"/>
<ellipse cx="178.935" cy="211.865" rx="1.47842" ry="2.21763" transform="rotate(-5.7915 178.935 211.865)" fill="white"/>
</svg>
