<svg width="390" height="411" viewBox="0 0 390 411" fill="none" xmlns="http://www.w3.org/2000/svg">
<circle opacity="0.2" cx="195" cy="159" r="121.5" stroke="#425066"/>
<circle opacity="0.1" cx="195" cy="174" r="150.5" stroke="#425066"/>
<circle opacity="0.1" cx="195" cy="190" r="179.5" stroke="#425066"/>
<circle opacity="0.05" cx="195" cy="204" r="206.5" stroke="#425066"/>
<circle cx="191.213" cy="158.968" r="84.7871" fill="#2298D5"/>
<circle cx="257.657" cy="99.0462" r="18.3434" fill="#2298D5"/>
<circle cx="86.0442" cy="117.39" r="13.0442" fill="#2298D5"/>
<circle cx="252.357" cy="220.112" r="13.0442" fill="#2298D5"/>
<circle cx="264.994" cy="59.0984" r="6.92972" fill="#2298D5"/>
<circle cx="269.07" cy="244.163" r="3.66867" fill="#2298D5"/>
<path d="M194.809 179.159C193.183 179.159 192.26 179.987 191.928 180.505C191.873 180.59 191.844 180.69 191.827 180.791C189.049 197.594 176.924 203.401 169.276 205.356C168.502 205.554 168.248 206.528 168.568 207.26C168.864 207.936 168.923 208.703 168.934 209.944C168.939 210.497 169.385 210.946 169.937 210.941C174.638 210.898 178.574 210.371 187.417 204.292C196.77 197.861 198.226 186.086 197.782 180.818C197.772 180.695 197.74 180.579 197.672 180.477C197.325 179.958 196.407 179.159 194.809 179.159Z" fill="white"/>
<path d="M164.165 123.228C177.825 117.125 188.959 118.552 191.529 122.012C194.099 125.472 195.359 175.859 188.739 176.512C182.118 177.166 178.667 172.307 168.378 165.895C158.088 159.482 147.091 130.856 164.165 123.228Z" fill="white"/>
<path fill-rule="evenodd" clip-rule="evenodd" d="M227.043 122.762C213.877 117.202 203.255 118.643 200.753 122.012C199.546 123.636 198.628 135.599 198.679 147.905C199.842 146.579 203.071 143.879 208.115 142.198C214.512 140.066 224.327 133.149 227.043 122.762ZM198.817 154.892C199.234 166.247 200.621 176.224 203.543 176.512C208.158 176.968 211.233 174.745 216.158 171.184C218.298 169.637 220.787 167.837 223.904 165.895C233.472 159.932 243.651 134.762 231.304 125.128C229.908 128.891 227.695 133.706 225.117 136.284C222.063 139.338 218.659 140.99 214.663 142.929C212.856 143.807 210.927 144.743 208.854 145.894C204.326 148.41 200.824 151.953 198.817 154.892Z" fill="white"/>
<ellipse cx="166.935" cy="208.865" rx="1.47842" ry="2.21763" transform="rotate(-5.7915 166.935 208.865)" fill="white"/>
</svg>
