<svg width="164" height="68" viewBox="0 0 164 68" fill="none" xmlns="http://www.w3.org/2000/svg">
<path d="M25.41 5.80097H7.78797V8.50697H25.41V5.80097ZM29.37 12.071H7.78797C7.78797 17.747 7.29297 26.096 4.32297 31.409C3.53097 30.782 1.78197 29.858 0.758972 29.495C3.59697 24.446 3.82797 17.087 3.82797 11.873V2.23697H29.37V12.071ZM14.454 15.932L16.665 16.526C15.708 23.522 13.2 27.647 9.40497 29.858C8.90997 29.132 7.52397 27.68 6.73197 27.185C9.53697 25.733 11.517 23.225 12.54 19.43H8.61297V15.998H13.827L14.454 15.932ZM27.456 14.249L30.822 16.658C28.941 18.341 26.796 20.156 24.882 21.509C26.763 23.753 29.073 25.502 31.845 26.558C30.987 27.317 29.799 28.835 29.238 29.924C25.938 28.307 23.331 25.7 21.351 22.433V27.713C21.351 29.561 21.021 30.485 19.8 31.079C18.645 31.64 16.995 31.739 14.817 31.739C14.685 30.65 14.124 29.132 13.596 28.142C14.916 28.208 16.368 28.208 16.797 28.175C17.259 28.142 17.391 28.043 17.391 27.647V12.566H21.351V15.371C21.813 16.559 22.341 17.714 22.968 18.803C24.585 17.417 26.334 15.668 27.456 14.249Z" fill="#425066"/>
<path d="M52.074 19.628H60.258C58.74 18.737 57.387 17.747 56.133 16.625C54.879 17.78 53.526 18.737 52.074 19.628ZM52.965 27.317H59.169V22.928H52.965V27.317ZM47.355 17.054V18.077C49.632 17.087 51.81 15.668 53.658 13.952C52.866 12.995 52.206 12.005 51.612 11.048C50.985 11.873 50.325 12.632 49.665 13.325C49.104 12.731 47.916 11.675 47.025 11.081V13.193H43.725V17.054H47.355ZM39.039 5.63597L39.072 9.82697H43.428V5.63597H39.039ZM58.377 7.51697H53.823L53.559 8.01197C54.219 9.13397 55.044 10.289 55.968 11.411C56.925 10.19 57.717 8.90297 58.377 7.51697ZM60.72 4.05197L63.195 5.10797C62.172 8.57297 60.621 11.51 58.608 13.985C60.522 15.503 62.799 16.823 65.439 17.648C64.647 18.407 63.525 19.925 62.997 20.948L62.931 20.915V31.706H59.169V30.683H52.965V31.805H49.335V21.08L48.576 21.41C48.312 20.882 47.85 20.156 47.355 19.529V20.486H43.725V24.875L47.619 23.984L47.982 27.449C43.362 28.604 38.346 29.759 34.617 30.617L33.924 26.855L35.409 26.591V15.503H38.61V25.931L40.26 25.601V13.193H35.64V2.26997H47.025V10.454C49.434 8.14397 51.414 4.64597 52.503 1.04897L56.232 1.97297C55.968 2.69897 55.704 3.45797 55.407 4.18397H60.027L60.72 4.05197Z" fill="#425066"/>
<path d="M83.556 26.294H97.383V30.254H67.551V26.294H79.332V1.44497H83.556V10.916H95.238V14.876H83.556V26.294Z" fill="#425066"/>
<path d="M122.694 17.483H113.421C114.576 19.628 116.127 21.509 118.008 23.06C119.955 21.575 121.539 19.694 122.694 17.483ZM107.349 13.292V13.82H114.411V8.93597H107.349V13.292ZM125.4 13.655L128.04 15.074C126.654 19.364 124.344 22.73 121.407 25.337C124.047 26.723 127.215 27.713 130.911 28.307C130.02 29.198 128.931 30.914 128.37 32.036C124.179 31.211 120.714 29.858 117.843 27.977C114.906 29.726 111.54 31.013 107.943 31.838C107.547 30.815 106.425 28.967 105.633 28.175C108.9 27.548 111.936 26.591 114.543 25.271C112.398 23.126 110.682 20.552 109.296 17.483H107.217C106.887 22.301 105.798 27.944 102.927 31.772C102.267 31.013 100.584 29.66 99.726 29.198C103.059 24.677 103.389 18.044 103.389 13.292V5.14097H114.411V0.982974H118.47V5.14097H126.39L127.05 4.97597L130.119 5.73497C129.36 8.37498 128.205 11.312 127.215 13.193L123.552 12.17C123.981 11.345 124.41 10.157 124.806 8.93597H118.47V13.82H124.674L125.4 13.655Z" fill="#425066"/>
<path d="M145.134 18.242V19.991H148.83V18.242H145.134ZM142.329 22.466V15.8H151.8V22.466H142.329ZM156.75 12.236V10.718H148.434V12.236H156.75ZM160.182 8.27597V14.711H145.233V8.27597H160.182ZM159.06 27.647V23.819H162.723V31.871H159.06V30.782H142.362V23.819H145.992V27.647H150.645V22.928H154.374V27.647H159.06ZM156.123 18.242L156.09 19.991H160.116V18.242H156.123ZM153.219 22.466V15.8H163.152V22.466H153.219ZM153.714 3.98597H163.779V7.28597H141.372V14.48C141.372 19.727 140.646 27.35 136.422 31.904C135.927 31.178 134.442 29.792 133.716 29.33C135.828 26.987 136.818 24.017 137.313 21.014C136.125 21.707 134.97 22.4 133.848 23.06L132.759 19.496C134.046 18.968 135.828 18.077 137.676 17.12C137.742 16.229 137.742 15.305 137.742 14.447V13.457L134.838 14.744C134.673 13.061 133.914 10.289 133.056 8.14397L135.894 6.98897C136.686 8.77097 137.445 11.114 137.742 12.764V3.98597H149.523C149.16 3.22697 148.764 2.43497 148.302 1.77497L151.8 0.685974C152.526 1.67597 153.285 2.89697 153.714 3.98597Z" fill="#425066"/>
<path d="M27.38 54.011L25.949 54.983C25.625 54.416 25.139 53.714 24.599 53.012C13.367 53.741 12.152 53.822 11.423 54.146C11.342 53.687 11.072 52.796 10.91 52.391C11.423 52.31 12.152 52.148 12.665 51.662C13.205 51.149 14.852 49.124 15.986 47.639H10.586V45.992H18.362C18.038 45.02 17.552 43.832 17.093 42.833L18.713 42.455C19.28 43.562 19.901 44.966 20.198 45.992H27.434V47.639H18.038C16.985 49.043 15.608 50.798 14.555 52.067L23.438 51.527C22.736 50.663 21.953 49.745 21.251 48.989L22.628 48.179C24.329 49.961 26.408 52.445 27.38 54.011ZM10.019 46.154L8.93897 47.558C7.99397 46.532 6.04997 45.047 4.42997 44.021L5.50997 42.806C7.07597 43.724 9.07397 45.155 10.019 46.154ZM9.07397 52.931L8.07497 54.416C7.02197 53.498 4.94297 52.202 3.21497 51.419L4.18697 50.096C5.86097 50.852 8.02097 52.04 9.07397 52.931ZM9.01997 56.765L10.316 57.953C8.91197 60.788 6.96797 64.19 5.42897 66.674L3.91697 65.459C5.37497 63.38 7.48097 59.816 9.01997 56.765ZM12.827 58.007V55.199H14.474V58.034C14.474 61.004 14.042 64.433 10.424 66.998C10.154 66.62 9.55997 66.053 9.15497 65.81C12.476 63.515 12.827 60.491 12.827 58.007ZM17.606 65.864V55.226H19.226V65.864H17.606ZM24.761 65.135H25.625C25.868 65.135 26.084 65.108 26.219 65C26.354 64.919 26.435 64.676 26.516 64.298C26.57 63.839 26.597 62.84 26.624 61.544C26.921 61.814 27.434 62.057 27.893 62.219C27.839 63.38 27.758 64.811 27.623 65.27C27.515 65.783 27.299 66.08 26.948 66.296C26.651 66.485 26.138 66.566 25.733 66.566H24.41C23.897 66.566 23.303 66.458 22.979 66.134C22.601 65.837 22.466 65.432 22.466 63.839V55.199H24.14V64.055C24.14 64.595 24.167 64.892 24.302 65C24.41 65.081 24.599 65.135 24.761 65.135Z" fill="#425066"/>
<path d="M53.894 44.102V45.803H40.664V44.102H53.894ZM36.29 42.428L37.991 43.103C36.263 45.452 33.536 48.044 31.133 49.718C30.89 49.367 30.35 48.692 30.026 48.341C32.294 46.856 34.913 44.399 36.29 42.428ZM37.37 48.179L39.071 48.8C38.207 50.177 37.154 51.581 36.047 52.904V67.133H34.265V54.875C33.185 56.009 32.051 57.035 30.971 57.899C30.701 57.521 30.026 56.792 29.648 56.441C32.483 54.443 35.48 51.284 37.37 48.179ZM54.65 51.5V53.228H50.519V64.676C50.519 65.81 50.222 66.323 49.358 66.62C48.44 66.863 46.955 66.863 44.39 66.863C44.309 66.404 44.012 65.702 43.742 65.243C45.713 65.297 47.522 65.297 48.035 65.27C48.548 65.243 48.71 65.108 48.71 64.649V53.228H39.503V51.5H54.65Z" fill="#425066"/>
<path d="M61.022 52.634L59.591 53.39C59.294 52.04 58.376 49.934 57.485 48.341L58.835 47.72C59.78 49.259 60.752 51.311 61.022 52.634ZM64.505 51.257V49.664H81.515V51.257H73.604V54.146H80.759V64.919C80.759 65.864 80.543 66.377 79.841 66.674C79.085 66.944 77.87 66.971 75.953 66.971C75.872 66.485 75.602 65.81 75.359 65.351C76.871 65.405 78.14 65.405 78.518 65.378C78.923 65.351 79.031 65.243 79.031 64.892V55.739H73.55C73.523 56.252 73.442 56.738 73.334 57.278C75.062 58.79 77.195 60.896 78.248 62.246L77.033 63.272C76.169 62.084 74.441 60.275 72.875 58.763C72.2 60.491 70.877 62.138 68.393 63.434C68.15 63.083 67.637 62.489 67.313 62.192C70.877 60.518 71.714 57.926 71.876 55.739H66.827V67.079H65.207V54.146H71.93V51.257H64.505ZM73.199 45.533H81.785V47.18H63.29V53.552C63.29 57.71 62.75 63.353 59.051 67.079C58.808 66.728 58.133 66.107 57.755 65.864C60.023 63.542 60.968 60.599 61.346 57.791C60.104 58.52 58.835 59.222 57.674 59.843L57.026 58.223C58.241 57.71 59.834 56.846 61.508 55.982C61.562 55.118 61.589 54.308 61.589 53.525V45.533H71.147C70.877 44.669 70.499 43.616 70.148 42.779L72.011 42.401C72.443 43.4 72.902 44.642 73.199 45.533Z" fill="#425066"/>
<path d="M86.996 48.584V52.175H85.295V46.964H89.804C89.291 45.911 88.292 44.48 87.401 43.4L88.886 42.725C89.912 43.832 91.019 45.371 91.478 46.424L90.452 46.964H96.635C96.284 45.803 95.393 44.075 94.529 42.806L96.095 42.239C97.04 43.535 97.985 45.263 98.309 46.424L96.986 46.964H101.495C102.494 45.722 103.655 43.913 104.33 42.617L106.112 43.265C105.302 44.507 104.276 45.857 103.385 46.964H107.921V52.175H106.166V48.584H86.996ZM108.434 57.629V59.303H97.364V64.757C97.364 65.918 97.04 66.431 96.122 66.701C95.177 66.998 93.665 67.025 91.181 67.025C91.046 66.485 90.695 65.783 90.425 65.27C92.531 65.351 94.34 65.351 94.853 65.297C95.42 65.27 95.555 65.135 95.555 64.757V59.303H84.701V57.629H95.555V55.631C97.229 55.037 99.092 54.065 100.523 53.093H89.156V51.473H102.575L102.953 51.392L104.141 52.283C102.386 53.849 99.794 55.361 97.364 56.414V57.629H108.434Z" fill="#425066"/>
<path d="M118.316 47.099L117.074 48.341C116.237 47.207 114.482 45.425 113.024 44.183L114.212 43.076C115.67 44.291 117.479 45.992 118.316 47.099ZM123.176 52.85H126.794V49.934H123.77V48.53H126.794V46.181H128.279V48.53H131.384V49.934H128.279V52.85H132.14V54.227H123.176V52.85ZM129.602 57.926H125.255V61.382H129.602V57.926ZM131.033 62.759H125.255V63.974H123.824V56.549H131.033V62.759ZM134.84 43.697V64.784C134.84 65.837 134.597 66.35 133.922 66.647C133.22 66.917 132.086 66.971 130.142 66.944C130.088 66.485 129.791 65.756 129.548 65.297C131.006 65.351 132.275 65.351 132.653 65.324C133.058 65.324 133.22 65.189 133.22 64.757V45.317H122.015V53.633C122.015 57.764 121.637 63.38 118.991 67.025C118.721 66.728 118.046 66.242 117.695 66.08C118.478 64.973 119.018 63.758 119.423 62.462C115.805 65.27 115.184 65.783 114.833 66.215C114.59 65.891 114.023 65.27 113.699 64.973C114.212 64.595 115.184 63.596 115.184 62.219V52.634H111.296V50.906H116.912V62.354L118.964 60.815C119.099 61.193 119.342 61.733 119.531 62.084C120.314 59.303 120.422 56.225 120.422 53.633V43.697H134.84Z" fill="#425066"/>
<path d="M139.106 66.134V64.514H162.002V66.134H139.106ZM156.062 57.845V55.442H144.857V57.845H156.062ZM156.062 61.517V59.114H144.857V61.517H156.062ZM143.075 54.119H157.898V62.84H143.075V54.119ZM162.434 47.558H153.308C155.684 50.096 159.464 52.364 162.92 53.471C162.515 53.768 162.002 54.47 161.732 54.902C157.979 53.525 153.821 50.69 151.337 47.585V53.309H149.555V47.558C147.071 50.771 142.94 53.66 139.268 55.145C138.998 54.713 138.458 54.038 138.107 53.687C141.455 52.526 145.181 50.177 147.503 47.558H138.62V45.938H149.555V42.455H151.337V45.938H162.434V47.558Z" fill="#425066"/>
</svg>
